# xmcd
#
# Track frame offsets: 
#        150
#        11024
#        27126
#        38459
#        57663
#        66774
#        78599
#        87225
#        101078
#        108841
#        121925
#        133379
#        146158
#        168431
#        188605
#        202440
#        212107
#        226009
#        238617
#        258642
#
# Disc length: 3635 seconds
#
# Revision: 1
# Processed by: cddbd v1.5.2PL0 Copyright (c) Steve Scherf et al.
# Submitted via: ExactAudioCopy v0.99pb5
#
DISCID=200e3114
DTITLE=Various Artist - I Love Christmas CD1
DYEAR=2009
DGENRE=Retro
TTITLE0=Elvis Presley - Silent Night
TTITLE1=Mud - Lonely this christmas
TTITLE2=Rosemary Clooney - Jingle bells
TTITLE3=Mahalia Jackson - What child is this
TTITLE4=Billy Vaughn - Joy to the world
TTITLE5=The cranberry singers - Wonderful christmas time
TTITLE6=The platters - Rudolph the red Nosed Reindeer
TTITLE7=Bill Pinkney and  The original Drifters - Winter wonderland
TTITLE8=Nat king cole - Santa Claus is coming to town
TTITLE9=Louis Armstrong - Christmas in New Orleans
TTITLE10=Gene Autry - Here comes Santa Claus
TTITLE11=Brook Benton - I wish every day cloud be like christmas
TTITLE12=Johnny Adams - Please come home for christmas
TTITLE13=Glen Campbell - The Christmas song
TTITLE14=Bing Crosby - White christmas
TTITLE15=Elvis Presley - Blue christmas
TTITLE16=The cranberry singers - The first noel
TTITLE17=Swan Silverstones - Go tell it on the mountain
TTITLE18=The three degrees - Last christmas
TTITLE19=Doris day - Christmas Story
EXTD=
EXTT0=
EXTT1=
EXTT2=
EXTT3=
EXTT4=
EXTT5=
EXTT6=
EXTT7=
EXTT8=
EXTT9=
EXTT10=
EXTT11=
EXTT12=
EXTT13=
EXTT14=
EXTT15=
EXTT16=
EXTT17=
EXTT18=
EXTT19=
PLAYORDER=
